<?xml version="1.0" encoding="utf-8"?>
<svg viewBox="124.87 70.845 263.979 363.884" xmlns="http://www.w3.org/2000/svg">
  <path d="M155.985 13.4937H416.165C427.674 13.8951 437.126 18.1101 444.525 26.139C452.335 34.168 456.239 43.8027 456.239 55.0424C454.185 79.1289 440.826 92.1764 416.165 94.1846H296.556H176.947C161.328 94.9854 148.381 100.807 138.105 111.647C127.829 122.485 120.226 134.931 115.293 148.98C110.772 162.629 108.511 176.68 108.511 191.132C108.511 205.584 110.772 219.835 115.293 233.887C120.226 247.533 127.829 259.778 138.105 270.618C148.381 281.456 161.328 287.277 176.947 288.08H364.376C371.774 287.678 375.678 283.665 376.088 276.037V241.11C375.678 233.082 371.774 229.069 364.376 229.069H206.541C195.032 229.069 185.168 225.254 176.947 217.628C169.137 209.599 165.233 199.964 165.233 188.724C165.233 177.483 169.137 167.849 176.947 159.82C185.168 152.191 195.032 148.378 206.541 148.378H417.397C428.906 148.378 438.77 152.191 446.991 159.82C454.389 167.446 458.293 176.681 458.706 187.518V188.724V329.629C458.293 340.469 454.389 349.502 446.991 356.726C439.182 364.354 429.728 368.369 418.631 368.771H155.985C127.213 367.165 103.373 356.527 84.4661 336.855C65.9701 316.783 52.6116 294.101 44.3911 268.811C36.5816 243.521 32.6768 217.628 32.6768 191.132C32.6768 164.637 36.787 138.744 45.0075 113.454C53.2281 88.1619 66.5865 65.6812 85.0827 46.0105C103.579 25.9384 127.213 15.0994 155.985 13.4937Z" style="fill: rgb(93, 71, 51);" transform="matrix(0.619627, 0, 0, 0.619627, 104.62236, 62.483654)"/>
  <path d="M263.348 600.756C242.122 600.756 221.101 598.364 200.285 593.581C179.876 588.796 160.284 581.82 141.508 572.65C122.732 563.082 106.201 550.525 91.9153 534.979C77.6293 519.431 69.8739 500.894 68.6494 479.366V454.249V445.281C68.6494 434.117 72.7312 424.95 80.8947 417.773C89.4662 410.2 99.4665 406.413 110.895 406.413C135.386 408.406 148.651 421.361 150.692 445.281V460.829C151.508 473.187 156.202 483.552 164.774 491.923C173.754 499.896 183.55 506.274 194.162 511.059C205.183 515.842 216.408 519.431 227.836 521.822C239.673 524.214 251.511 525.411 263.348 525.411C275.184 525.411 286.817 524.214 298.247 521.822C310.082 519.431 321.308 515.842 331.921 511.059C342.94 506.274 352.737 499.896 361.308 491.923C370.287 483.552 375.187 473.187 376.002 460.829V263.495C376.002 252.332 380.084 243.164 388.248 235.987C396.819 228.412 406.819 224.625 418.249 224.625C442.74 226.618 456.208 239.575 458.657 263.495V454.249V479.366C457.434 500.894 449.474 519.431 434.78 534.979C420.494 550.525 403.963 563.082 385.187 572.65C366.412 581.82 346.615 588.796 325.798 593.581C305.389 598.364 284.573 600.756 263.348 600.756Z" style="fill: rgb(93, 71, 51);" transform="matrix(0.619627, 0, 0, 0.619627, 104.62236, 62.483654)"/>
</svg>